<svg width="177" height="22" viewBox="0 0 177 22" fill="none" xmlns="http://www.w3.org/2000/svg">
<path d="M3.872 1.19999V14.832H10.28V18H0.559998V1.19999H3.872Z" fill="#303030"/>
<path d="M13.5536 4.55999C13.0416 4.55999 12.5936 4.37599 12.2096 4.00799C11.8416 3.62399 11.6576 3.17599 11.6576 2.66399C11.6576 2.15199 11.8416 1.70399 12.2096 1.31999C12.5936 0.935988 13.0416 0.743988 13.5536 0.743988C14.0816 0.743988 14.5296 0.935988 14.8976 1.31999C15.2816 1.70399 15.4736 2.15199 15.4736 2.66399C15.4736 3.17599 15.2816 3.62399 14.8976 4.00799C14.5296 4.37599 14.0816 4.55999 13.5536 4.55999ZM15.1136 18H12.0176V5.99999H15.1136V18Z" fill="#303030"/>
<path d="M22.9152 14.4L25.8432 5.99999H29.2512L24.6912 18H21.1632L16.6032 5.99999H20.0112L22.9152 14.4Z" fill="#303030"/>
<path d="M41.9394 13.272H32.8914C33.2914 14.776 34.4194 15.528 36.2754 15.528C37.4594 15.528 38.3554 15.128 38.9634 14.328L41.4594 15.768C40.2754 17.48 38.5314 18.336 36.2274 18.336C34.2434 18.336 32.6514 17.736 31.4514 16.536C30.2514 15.336 29.6514 13.824 29.6514 12C29.6514 10.208 30.2434 8.70399 31.4274 7.48799C32.5954 6.27199 34.1154 5.66399 35.9874 5.66399C37.7634 5.66399 39.2114 6.27199 40.3314 7.48799C41.4834 8.70399 42.0594 10.208 42.0594 12C42.0594 12.336 42.0194 12.76 41.9394 13.272ZM32.8434 10.872H38.9634C38.7874 10.088 38.4274 9.48799 37.8834 9.07199C37.3554 8.65599 36.7234 8.44799 35.9874 8.44799C35.1554 8.44799 34.4674 8.66399 33.9234 9.09599C33.3794 9.51199 33.0194 10.104 32.8434 10.872Z" fill="#303030"/>
<path d="M79.9327 18.336C78.1247 18.336 76.6127 17.728 75.3967 16.512C74.1967 15.296 73.5967 13.792 73.5967 12C73.5967 10.208 74.1967 8.70399 75.3967 7.48799C76.6127 6.27199 78.1247 5.66399 79.9327 5.66399C81.1007 5.66399 82.1647 5.94399 83.1247 6.50399C84.0847 7.06399 84.8127 7.81599 85.3087 8.75999L82.6447 10.32C82.4047 9.82399 82.0367 9.43199 81.5407 9.14399C81.0607 8.85599 80.5167 8.71199 79.9087 8.71199C78.9807 8.71199 78.2127 9.02399 77.6047 9.64799C76.9967 10.256 76.6927 11.04 76.6927 12C76.6927 12.928 76.9967 13.712 77.6047 14.352C78.2127 14.96 78.9807 15.264 79.9087 15.264C80.5327 15.264 81.0847 15.128 81.5647 14.856C82.0607 14.568 82.4287 14.176 82.6687 13.68L85.3567 15.216C84.8287 16.176 84.0767 16.936 83.1007 17.496C82.1407 18.056 81.0847 18.336 79.9327 18.336Z" fill="#303030"/>
<path d="M97.0306 16.512C95.8146 17.728 94.3106 18.336 92.5186 18.336C90.7266 18.336 89.2226 17.728 88.0066 16.512C86.7906 15.296 86.1826 13.792 86.1826 12C86.1826 10.224 86.7906 8.72799 88.0066 7.51199C89.2386 6.27999 90.7426 5.66399 92.5186 5.66399C94.2946 5.66399 95.7986 6.27999 97.0306 7.51199C98.2626 8.74399 98.8786 10.24 98.8786 12C98.8786 13.776 98.2626 15.28 97.0306 16.512ZM90.1906 14.376C90.8146 15 91.5906 15.312 92.5186 15.312C93.4466 15.312 94.2226 15 94.8466 14.376C95.4706 13.752 95.7826 12.96 95.7826 12C95.7826 11.04 95.4706 10.248 94.8466 9.62399C94.2226 8.99999 93.4466 8.68799 92.5186 8.68799C91.5906 8.68799 90.8146 8.99999 90.1906 9.62399C89.5826 10.264 89.2786 11.056 89.2786 12C89.2786 12.944 89.5826 13.736 90.1906 14.376Z" fill="#303030"/>
<path d="M114.329 5.66399C115.705 5.66399 116.801 6.11199 117.617 7.00799C118.449 7.90399 118.865 9.10399 118.865 10.608V18H115.769V10.824C115.769 10.104 115.593 9.54399 115.241 9.14399C114.889 8.74399 114.393 8.54399 113.753 8.54399C113.049 8.54399 112.497 8.77599 112.097 9.23999C111.713 9.70399 111.521 10.376 111.521 11.256V18H108.425V10.824C108.425 10.104 108.249 9.54399 107.897 9.14399C107.545 8.74399 107.049 8.54399 106.409 8.54399C105.721 8.54399 105.169 8.78399 104.753 9.26399C104.353 9.72799 104.153 10.392 104.153 11.256V18H101.057V5.99999H104.153V7.27199C104.873 6.19999 105.985 5.66399 107.489 5.66399C108.977 5.66399 110.065 6.23999 110.753 7.39199C111.537 6.23999 112.729 5.66399 114.329 5.66399Z" fill="#303030"/>
<path d="M134.766 5.66399C136.142 5.66399 137.238 6.11199 138.054 7.00799C138.886 7.90399 139.302 9.10399 139.302 10.608V18H136.206V10.824C136.206 10.104 136.03 9.54399 135.678 9.14399C135.326 8.74399 134.83 8.54399 134.19 8.54399C133.486 8.54399 132.934 8.77599 132.534 9.23999C132.15 9.70399 131.958 10.376 131.958 11.256V18H128.862V10.824C128.862 10.104 128.686 9.54399 128.334 9.14399C127.982 8.74399 127.486 8.54399 126.846 8.54399C126.158 8.54399 125.606 8.78399 125.19 9.26399C124.79 9.72799 124.59 10.392 124.59 11.256V18H121.494V5.99999H124.59V7.27199C125.31 6.19999 126.422 5.66399 127.926 5.66399C129.414 5.66399 130.502 6.23999 131.19 7.39199C131.974 6.23999 133.166 5.66399 134.766 5.66399Z" fill="#303030"/>
<path d="M153.596 13.272H144.548C144.948 14.776 146.076 15.528 147.932 15.528C149.116 15.528 150.012 15.128 150.62 14.328L153.116 15.768C151.932 17.48 150.188 18.336 147.884 18.336C145.9 18.336 144.308 17.736 143.108 16.536C141.908 15.336 141.308 13.824 141.308 12C141.308 10.208 141.9 8.70399 143.084 7.48799C144.252 6.27199 145.772 5.66399 147.644 5.66399C149.42 5.66399 150.868 6.27199 151.988 7.48799C153.14 8.70399 153.716 10.208 153.716 12C153.716 12.336 153.676 12.76 153.596 13.272ZM144.5 10.872H150.62C150.444 10.088 150.084 9.48799 149.54 9.07199C149.012 8.65599 148.38 8.44799 147.644 8.44799C146.812 8.44799 146.124 8.66399 145.58 9.09599C145.036 9.51199 144.676 10.104 144.5 10.872Z" fill="#303030"/>
<path d="M162.549 5.66399C163.877 5.66399 164.957 6.10399 165.789 6.98399C166.653 7.87999 167.085 9.09599 167.085 10.632V18H163.989V11.016C163.989 10.232 163.773 9.62399 163.341 9.19199C162.925 8.75999 162.349 8.54399 161.613 8.54399C160.797 8.54399 160.149 8.79999 159.669 9.31199C159.205 9.80799 158.973 10.544 158.973 11.52V18H155.877V5.99999H158.973V7.34399C159.709 6.22399 160.901 5.66399 162.549 5.66399Z" fill="#303030"/>
<path d="M176.592 5.99999V8.97599H173.88V13.968C173.88 14.384 173.985 14.688 174.193 14.88C174.401 15.072 174.704 15.184 175.104 15.216C175.504 15.232 176 15.224 176.592 15.192V18C174.496 18.24 173 18.048 172.104 17.424C171.224 16.784 170.785 15.632 170.785 13.968V8.97599H168.697V5.99999H170.785V3.57599L173.88 2.63999V5.99999H176.592Z" fill="#303030"/>
<path d="M48.7778 12.3276L49.8589 13.4059L58.4355 21.9604L67.0123 13.4059L68.0933 12.3276C69.2323 11.1915 69.8712 9.65443 69.8712 8.05047C69.8712 4.70889 67.1551 2 63.8049 2C62.1968 2 60.6557 2.63712 59.5165 3.77326L58.4355 4.85148L57.3545 3.77326C56.2154 2.63712 54.6743 2 53.0662 2C49.7159 2 47 4.70889 47 8.05047C47 9.65443 47.6387 11.1915 48.7778 12.3276Z" fill="url(#paint0_linear_17_124)"/>
<defs>
<linearGradient id="paint0_linear_17_124" x1="55" y1="36.5" x2="81.2477" y2="20.779" gradientUnits="userSpaceOnUse">
<stop offset="0.0151825" stop-color="#FDF497"/>
<stop offset="0.168013" stop-color="#FDF497"/>
<stop offset="0.370751" stop-color="#FD5949"/>
<stop offset="0.600016" stop-color="#D6249F"/>
<stop offset="1" stop-color="#285AEB"/>
</linearGradient>
</defs>
</svg>
