<svg width="20" height="20" viewBox="0 0 20 20" fill="none" xmlns="http://www.w3.org/2000/svg">
<g clip-path="url(#clip0_15_68)">
<path d="M7.44141 2.6875L8.80078 5H8.75H8.4375H5.9375C5.07422 5 4.375 4.30078 4.375 3.4375C4.375 2.57422 5.07422 1.875 5.9375 1.875H6.02344C6.60547 1.875 7.14844 2.18359 7.44141 2.6875ZM10 3.33984L9.05859 1.73828C8.42578 0.660156 7.26953 0 6.02344 0H5.9375C4.03906 0 2.5 1.53906 2.5 3.4375C2.5 5.33594 4.03906 6.875 5.9375 6.875H8.4375H8.75V10H11.25V6.875H14.0625C15.9609 6.875 17.5 5.33594 17.5 3.4375C17.5 1.53906 15.9609 0 14.0625 0H13.9766C12.7305 0 11.5742 0.660156 10.9414 1.73438L10 3.33984ZM12.5586 2.6875C12.8555 2.18359 13.3945 1.875 13.9766 1.875H14.0625C14.9258 1.875 15.625 2.57422 15.625 3.4375C15.625 4.30078 14.9258 5 14.0625 5H11.1992L12.5586 2.6875ZM11.25 20V11.25H8.75V20H11.25Z" fill="#BB69C8"/>
<path opacity="0.4" d="M2.875 5C3.44531 6.11328 4.60156 6.875 5.9375 6.875H8.4375H8.75V10H1.25C0.558594 10 0 9.44141 0 8.75V6.25C0 5.55859 0.558594 5 1.25 5H2.875ZM18.75 10H11.25V6.875H14.0625C15.3984 6.875 16.5547 6.11328 17.125 5H18.75C19.4414 5 20 5.55859 20 6.25V8.75C20 9.44141 19.4414 10 18.75 10ZM1.25 11.25H8.75V20H3.125C2.08984 20 1.25 19.1602 1.25 18.125V11.25ZM11.25 20V11.25H18.75V18.125C18.75 19.1602 17.9102 20 16.875 20H11.25Z" fill="#BB69C8"/>
</g>
<defs>
<clipPath id="clip0_15_68">
<rect width="20" height="20" fill="white"/>
</clipPath>
</defs>
</svg>
