<svg width="99" height="89" viewBox="0 0 99 89" fill="none" xmlns="http://www.w3.org/2000/svg">
<path d="M60.459 10.0255C56.6143 7.7952 52.0387 7.2087 47.7522 8.36538L16.1742 16.8865C7.22083 19.3025 1.92779 28.4966 4.30771 37.4414L11.0465 62.7688C13.4264 71.7136 22.6071 77.002 31.5285 74.5946L63.1065 66.0735C72.0279 63.6661 77.3561 54.4626 74.9762 45.5178L68.2374 20.1903C67.0943 15.8943 64.3051 12.2486 60.459 10.0255Z" fill="url(#paint0_linear_75_156)"/>
<g filter="url(#filter0_f_75_156)">
<path d="M51.7045 18.3634C49.2787 16.8724 46.4085 16.4511 43.7334 17.173L24.026 22.4909C18.4384 23.9987 15.1978 29.9721 16.7604 35.8452L21.185 52.4749C22.7477 58.348 28.5398 61.8839 34.1075 60.3815L53.8148 55.0636C59.3825 53.5612 62.6451 47.5819 61.0825 41.7088L56.6578 25.0791C55.9073 22.2583 54.1311 19.8497 51.7045 18.3634Z" fill="#EF5641"/>
</g>
<g filter="url(#filter1_b_75_156)">
<mask id="path-3-outside-1_75_156" maskUnits="userSpaceOnUse" x="20.6924" y="20.2541" width="76" height="69" fill="black">
<rect fill="white" x="20.6924" y="20.2541" width="76" height="69"/>
<path d="M90.0409 26.7458C86.5384 23.2194 81.7773 21.2541 76.8281 21.2541H40.3674C30.0297 21.2541 21.6924 29.6344 21.6924 39.98V69.2741C21.6924 79.6197 30.0666 88 40.3674 88H76.8281C87.1289 88 95.5068 79.6197 95.5068 69.2741V39.98C95.5068 35.0112 93.547 30.2648 90.0409 26.7458Z"/>
</mask>
<path d="M90.0409 26.7458C86.5384 23.2194 81.7773 21.2541 76.8281 21.2541H40.3674C30.0297 21.2541 21.6924 29.6344 21.6924 39.98V69.2741C21.6924 79.6197 30.0666 88 40.3674 88H76.8281C87.1289 88 95.5068 79.6197 95.5068 69.2741V39.98C95.5068 35.0112 93.547 30.2648 90.0409 26.7458Z" fill="#FFAC95" fill-opacity="0.4"/>
<path d="M89.3314 27.4505C89.7205 27.8423 90.3537 27.8445 90.7456 27.4553C91.1374 27.0661 91.1396 26.433 90.7504 26.0411L89.3314 27.4505ZM90.7493 26.04C90.3594 25.6487 89.7263 25.6476 89.335 26.0374C88.9438 26.4272 88.9426 27.0604 89.3325 27.4516L90.7493 26.04ZM90.7504 26.0411C87.059 22.3245 82.0421 20.2541 76.8281 20.2541V22.2541C81.5126 22.2541 86.0177 24.1143 89.3314 27.4505L90.7504 26.0411ZM76.8281 20.2541H40.3674V22.2541H76.8281V20.2541ZM40.3674 20.2541C29.4742 20.2541 20.6924 29.0854 20.6924 39.98H22.6924C22.6924 30.1834 30.5853 22.2541 40.3674 22.2541V20.2541ZM20.6924 39.98V69.2741H22.6924V39.98H20.6924ZM20.6924 69.2741C20.6924 80.17 29.5124 89 40.3674 89V87C30.6209 87 22.6924 79.0694 22.6924 69.2741H20.6924ZM40.3674 89H76.8281V87H40.3674V89ZM76.8281 89C87.6829 89 96.5068 80.1703 96.5068 69.2741H94.5068C94.5068 79.0692 86.5749 87 76.8281 87V89ZM96.5068 69.2741V39.98H94.5068V69.2741H96.5068ZM96.5068 39.98C96.5068 34.7468 94.4423 29.7465 90.7493 26.04L89.3325 27.4516C92.6518 30.783 94.5068 35.2756 94.5068 39.98H96.5068Z" fill="url(#paint1_linear_75_156)" mask="url(#path-3-outside-1_75_156)"/>
</g>
<g filter="url(#filter2_bd_75_156)">
<mask id="path-5-inside-2_75_156" fill="white">
<path d="M82.9955 45.2082L82.7002 45.5048L66.0513 58.8911C63.9882 60.5227 61.4379 61.4126 58.8212 61.4126C56.1971 61.4126 53.6911 60.5227 51.6243 58.8911L34.8315 45.7273L34.348 45.2453C33.5029 44.1328 33.6136 42.5384 34.6101 41.5372C35.566 40.536 37.153 40.4247 38.3008 41.2776L54.9091 54.6268C57.0829 56.4104 60.1499 56.4104 62.2905 54.6268L78.932 41.2776C79.4893 40.7585 80.2274 40.4952 81.0025 40.536C81.7369 40.6101 82.4418 40.9476 82.9549 41.5001C83.8775 42.5754 83.8775 44.1328 82.9955 45.2082Z"/>
</mask>
<path d="M82.9955 45.2082L82.7002 45.5048L66.0513 58.8911C63.9882 60.5227 61.4379 61.4126 58.8212 61.4126C56.1971 61.4126 53.6911 60.5227 51.6243 58.8911L34.8315 45.7273L34.348 45.2453C33.5029 44.1328 33.6136 42.5384 34.6101 41.5372C35.566 40.536 37.153 40.4247 38.3008 41.2776L54.9091 54.6268C57.0829 56.4104 60.1499 56.4104 62.2905 54.6268L78.932 41.2776C79.4893 40.7585 80.2274 40.4952 81.0025 40.536C81.7369 40.6101 82.4418 40.9476 82.9549 41.5001C83.8775 42.5754 83.8775 44.1328 82.9955 45.2082Z" fill="url(#paint2_linear_75_156)"/>
<path d="M82.7002 45.5048L82.8255 45.6607L82.8341 45.6538L82.8419 45.6459L82.7002 45.5048ZM66.0513 58.8911L66.1754 59.048L66.1767 59.047L66.0513 58.8911ZM51.6243 58.8911L51.7482 58.7341L51.7477 58.7337L51.6243 58.8911ZM34.8315 45.7273L34.6903 45.869L34.6988 45.8774L34.7081 45.8847L34.8315 45.7273ZM34.348 45.2453L34.1888 45.3663L34.1971 45.3772L34.2068 45.3869L34.348 45.2453ZM34.6101 41.5372L34.7519 41.6783L34.7547 41.6753L34.6101 41.5372ZM38.3008 41.2776L38.4262 41.1216L38.4201 41.1171L38.3008 41.2776ZM54.9091 54.6268L55.0359 54.4722L55.0344 54.4709L54.9091 54.6268ZM62.2905 54.6268L62.1653 54.4708L62.1625 54.4731L62.2905 54.6268ZM78.932 41.2776L79.0571 41.4336L79.0629 41.429L79.0683 41.4239L78.932 41.2776ZM81.0025 40.536L81.0226 40.3368L81.013 40.3363L81.0025 40.536ZM82.9549 41.5001L83.1068 41.3698L83.1014 41.364L82.9549 41.5001ZM82.8537 45.0671L82.5584 45.3638L82.8419 45.6459L83.1372 45.3493L82.8537 45.0671ZM82.5749 45.349L65.926 58.7352L66.1767 59.047L82.8255 45.6607L82.5749 45.349ZM65.9273 58.7342C63.8993 60.3381 61.3926 61.2126 58.8212 61.2126V61.6126C61.4833 61.6126 64.0772 60.7073 66.1754 59.048L65.9273 58.7342ZM58.8212 61.2126C56.2432 61.2126 53.7806 60.3385 51.7482 58.7341L51.5004 59.0481C53.6016 60.7068 56.151 61.6126 58.8212 61.6126V61.2126ZM51.7477 58.7337L34.9549 45.5699L34.7081 45.8847L51.5009 59.0485L51.7477 58.7337ZM34.9727 45.5857L34.4893 45.1036L34.2068 45.3869L34.6903 45.869L34.9727 45.5857ZM34.5073 45.1243C33.7233 44.0923 33.8249 42.6096 34.7518 41.6783L34.4683 41.3961C33.4023 42.4671 33.2825 44.1734 34.1888 45.3663L34.5073 45.1243ZM34.7547 41.6753C35.6374 40.7508 37.1105 40.6424 38.1815 41.4381L38.4201 41.1171C37.1955 40.2071 35.4946 40.3211 34.4654 41.3991L34.7547 41.6753ZM38.1755 41.4335L54.7838 54.7827L55.0344 54.4709L38.4261 41.1217L38.1755 41.4335ZM54.7822 54.7814C57.0292 56.625 60.2032 56.6263 62.4185 54.7804L62.1625 54.4731C60.0966 56.1945 57.1366 56.1957 55.0359 54.4722L54.7822 54.7814ZM62.4156 54.7828L79.0571 41.4336L78.8068 41.1216L62.1654 54.4708L62.4156 54.7828ZM79.0683 41.4239C79.5848 40.9428 80.2696 40.6977 80.992 40.7357L81.013 40.3363C80.1852 40.2927 79.3937 40.5742 78.7956 41.1313L79.0683 41.4239ZM80.9824 40.735C81.6702 40.8044 82.3296 41.1206 82.8083 41.6362L83.1014 41.364C82.5541 40.7746 81.8037 40.4159 81.0226 40.337L80.9824 40.735ZM82.8031 41.6303C83.6618 42.6311 83.6621 44.0801 82.8408 45.0814L83.1501 45.335C84.093 44.1856 84.0933 42.5197 83.1066 41.3699L82.8031 41.6303Z" fill="url(#paint3_linear_75_156)" fill-opacity="0.5" mask="url(#path-5-inside-2_75_156)"/>
</g>
<defs>
<filter id="filter0_f_75_156" x="0.367828" y="0.828735" width="77.1056" height="75.8983" filterUnits="userSpaceOnUse" color-interpolation-filters="sRGB">
<feFlood flood-opacity="0" result="BackgroundImageFix"/>
<feBlend mode="normal" in="SourceGraphic" in2="BackgroundImageFix" result="shape"/>
<feGaussianBlur stdDeviation="8" result="effect1_foregroundBlur_75_156"/>
</filter>
<filter id="filter1_b_75_156" x="5.69238" y="5.25409" width="105.814" height="98.746" filterUnits="userSpaceOnUse" color-interpolation-filters="sRGB">
<feFlood flood-opacity="0" result="BackgroundImageFix"/>
<feGaussianBlur in="BackgroundImageFix" stdDeviation="7.5"/>
<feComposite in2="SourceAlpha" operator="in" result="effect1_backgroundBlur_75_156"/>
<feBlend mode="normal" in="SourceGraphic" in2="effect1_backgroundBlur_75_156" result="shape"/>
</filter>
<filter id="filter2_bd_75_156" x="18.7814" y="25.5319" width="79.8707" height="50.8807" filterUnits="userSpaceOnUse" color-interpolation-filters="sRGB">
<feFlood flood-opacity="0" result="BackgroundImageFix"/>
<feGaussianBlur in="BackgroundImageFix" stdDeviation="7.5"/>
<feComposite in2="SourceAlpha" operator="in" result="effect1_backgroundBlur_75_156"/>
<feColorMatrix in="SourceAlpha" type="matrix" values="0 0 0 0 0 0 0 0 0 0 0 0 0 0 0 0 0 0 127 0" result="hardAlpha"/>
<feOffset dx="5" dy="5"/>
<feGaussianBlur stdDeviation="5"/>
<feColorMatrix type="matrix" values="0 0 0 0 1 0 0 0 0 0.447059 0 0 0 0 0.368627 0 0 0 0.5 0"/>
<feBlend mode="normal" in2="effect1_backgroundBlur_75_156" result="effect2_dropShadow_75_156"/>
<feBlend mode="normal" in="SourceGraphic" in2="effect2_dropShadow_75_156" result="shape"/>
</filter>
<linearGradient id="paint0_linear_75_156" x1="45.381" y1="44.0771" x2="-0.765489" y2="87.5516" gradientUnits="userSpaceOnUse">
<stop stop-color="#FFA78F"/>
<stop offset="1" stop-color="#F23E2C"/>
</linearGradient>
<linearGradient id="paint1_linear_75_156" x1="33.4424" y1="29.0301" x2="74.9275" y2="85.8515" gradientUnits="userSpaceOnUse">
<stop stop-color="white" stop-opacity="0.25"/>
<stop offset="1" stop-color="white" stop-opacity="0"/>
</linearGradient>
<linearGradient id="paint2_linear_75_156" x1="80.1162" y1="44.3025" x2="24.8412" y2="48.6068" gradientUnits="userSpaceOnUse">
<stop stop-color="white"/>
<stop offset="1" stop-color="white" stop-opacity="0.2"/>
</linearGradient>
<linearGradient id="paint3_linear_75_156" x1="81.5152" y1="51.4139" x2="33.4219" y2="56.1991" gradientUnits="userSpaceOnUse">
<stop stop-color="white"/>
<stop offset="1" stop-color="white" stop-opacity="0"/>
</linearGradient>
</defs>
</svg>
