<svg width="24" height="24" viewBox="0 0 24 24" fill="none" xmlns="http://www.w3.org/2000/svg">
<path fill-rule="evenodd" clip-rule="evenodd" d="M11.9453 12.3942C10.3217 12.3874 8.76648 11.7368 7.61841 10.5841C6.47034 9.43144 5.82238 7.86998 5.81566 6.23983C5.8199 4.60098 6.46439 3.0292 7.61059 1.86239C8.75681 0.695576 10.3132 0.026868 11.9453 6.98756e-06C12.7577 -0.00122309 13.5624 0.159965 14.3122 0.474177C15.062 0.788386 15.742 1.24933 16.3125 1.83013C16.8831 2.41093 17.3327 3.09997 17.6353 3.85705C17.9379 4.61416 18.0873 5.42414 18.0749 6.23983C18.0852 7.05089 17.9337 7.85581 17.6293 8.60715C17.3249 9.35851 16.8737 10.0411 16.3025 10.6146C15.7312 11.1882 15.0514 11.6411 14.3031 11.9467C13.5548 12.2524 12.7531 12.4045 11.9453 12.3942ZM11.9453 3.67552C11.6026 3.67533 11.2634 3.74437 10.9478 3.87856C10.6323 4.01274 10.3468 4.20929 10.1085 4.45655C9.87022 4.70379 9.68391 4.99666 9.56067 5.31771C9.43746 5.63877 9.37984 5.98144 9.39126 6.32529C9.3862 6.65953 9.44948 6.99123 9.57714 7.29994C9.70483 7.60865 9.89418 7.88777 10.1335 8.12011C10.3729 8.35242 10.6572 8.53298 10.9688 8.65064C11.2804 8.76828 11.6128 8.82054 11.9453 8.80412C12.2757 8.81207 12.6044 8.754 12.9123 8.63331C13.2201 8.51261 13.501 8.33169 13.7386 8.10105C13.9763 7.87042 14.1659 7.59466 14.2965 7.28983C14.4271 6.98497 14.496 6.65713 14.4993 6.32529C14.5107 5.98144 14.4531 5.63877 14.3298 5.31771C14.2066 4.99666 14.0203 4.70379 13.782 4.45655C13.5437 4.20929 13.2583 4.01274 12.9427 3.87856C12.6272 3.74437 12.288 3.67533 11.9453 3.67552ZM14.4141 17.5228L17.9046 20.9419C18.0668 21.1046 18.1954 21.2978 18.2832 21.5105C18.371 21.7231 18.4161 21.9511 18.4161 22.1813C18.4161 22.4115 18.371 22.6394 18.2832 22.8521C18.1954 23.0647 18.0668 23.258 17.9046 23.4207C17.7536 23.6021 17.5648 23.7479 17.3515 23.848C17.1382 23.9481 16.9056 24 16.6702 24C16.4347 24 16.2022 23.9481 15.9889 23.848C15.7756 23.7479 15.5868 23.6021 15.4357 23.4207L11.9453 20.0016L8.53994 23.4207C8.37431 23.5906 8.17517 23.724 7.95529 23.8123C7.73542 23.9006 7.4996 23.9419 7.26293 23.9335C6.79102 23.9159 6.33977 23.7347 5.98593 23.4207C5.82376 23.258 5.69511 23.0647 5.60734 22.8521C5.51957 22.6394 5.47439 22.4115 5.47439 22.1813C5.47439 21.9511 5.51957 21.7231 5.60734 21.5105C5.69511 21.2978 5.82376 21.1046 5.98593 20.9419L9.56153 17.5228C8.28408 17.1221 7.05599 16.5772 5.90079 15.8987C5.50627 15.639 5.22508 15.2381 5.11438 14.7777C5.00368 14.3172 5.07179 13.8317 5.30486 13.4199C5.43477 13.213 5.60526 13.0347 5.80594 12.896C6.00662 12.7573 6.23331 12.661 6.47222 12.613C6.71113 12.565 6.95726 12.5664 7.19564 12.6169C7.43402 12.6675 7.65967 12.7662 7.85886 12.907C9.10495 13.6617 10.5326 14.0605 11.9878 14.0605C13.4431 14.0605 14.8707 13.6617 16.1168 12.907C16.316 12.7662 16.5417 12.6675 16.78 12.6169C17.0184 12.5664 17.2645 12.565 17.5034 12.613C17.7424 12.661 17.969 12.7573 18.1697 12.896C18.3704 13.0347 18.5409 13.213 18.6708 13.4199C18.9122 13.8217 18.9937 14.3002 18.899 14.7597C18.8043 15.2193 18.5404 15.626 18.16 15.8987C16.9751 16.5776 15.7188 17.1223 14.4141 17.5228Z" fill="#FF8800"/>
</svg>
