<svg width="24" height="24" viewBox="0 0 24 24" fill="none" xmlns="http://www.w3.org/2000/svg">
<path d="M6.02597 17.9481H7.53247V8.49351C6.96104 8.64935 6.44156 8.96104 6.02597 9.32468V17.9481ZM3.01299 11.5584V17.9481H3.11688H4.51948V11.5584H3.11688H3.01299ZM0 14.7273C0 15.8701 0.623377 16.9091 1.50649 17.4286V12.026C0.623377 12.5455 0 13.5844 0 14.7273ZM8.98701 17.9481H10.4935V8.90909C10.026 8.64935 9.55844 8.44156 8.98701 8.38961V17.9481ZM20.8831 11.5584H20.0519C20.1039 11.2987 20.1039 11.039 20.1039 10.7792C20.1039 8.12987 18.026 6 15.4805 6C14.0779 6 12.8312 6.62338 12 7.66234V18H20.8831C22.5974 18 24 16.5455 24 14.7792C24 12.961 22.5974 11.5584 20.8831 11.5584Z" fill="#FF7700"/>
</svg>
