<svg width="48" height="55" viewBox="0 0 48 55" fill="none" xmlns="http://www.w3.org/2000/svg">
<g opacity="0.65">
<path d="M26.3357 4.93066C25.9179 4.01758 25.0071 3.4375 24 3.4375C22.9929 3.4375 22.0821 4.01758 21.6643 4.93066L15.2893 18.7666L1.48929 25.1582C0.578571 25.5771 0 26.4902 0 27.5C0 28.5098 0.578571 29.4228 1.48929 29.8418L15.2893 36.2334L21.6643 50.0693C22.0821 50.9824 22.9929 51.5625 24 51.5625C25.0071 51.5625 25.9179 50.9824 26.3357 50.0693L32.7107 36.2334L46.5107 29.8418C47.4214 29.4228 48 28.5098 48 27.5C48 26.4902 47.4214 25.5771 46.5107 25.1582L32.7107 18.7666L26.3357 4.93066Z" fill="black"/>
<path d="M26.3357 4.93066C25.9179 4.01758 25.0071 3.4375 24 3.4375C22.9929 3.4375 22.0821 4.01758 21.6643 4.93066L15.2893 18.7666L1.48929 25.1582C0.578571 25.5771 0 26.4902 0 27.5C0 28.5098 0.578571 29.4228 1.48929 29.8418L15.2893 36.2334L21.6643 50.0693C22.0821 50.9824 22.9929 51.5625 24 51.5625C25.0071 51.5625 25.9179 50.9824 26.3357 50.0693L32.7107 36.2334L46.5107 29.8418C47.4214 29.4228 48 28.5098 48 27.5C48 26.4902 47.4214 25.5771 46.5107 25.1582L32.7107 18.7666L26.3357 4.93066Z" fill="url(#paint0_linear_55_845)"/>
</g>
<defs>
<linearGradient id="paint0_linear_55_845" x1="23.99" y1="41.4369" x2="38.2392" y2="26.9108" gradientUnits="userSpaceOnUse">
<stop stop-color="#FFD521"/>
<stop offset="0.05" stop-color="#FFD521"/>
<stop offset="0.550024" stop-color="#F50000"/>
<stop offset="0.95" stop-color="#B900B4"/>
<stop offset="0.950079" stop-color="#B900B4"/>
<stop offset="1" stop-color="#B900B4"/>
</linearGradient>
</defs>
</svg>
