<svg width="31" height="35" viewBox="0 0 31 35" fill="none" xmlns="http://www.w3.org/2000/svg">
<g opacity="0.35">
<path d="M17.0085 3.1377C16.7386 2.55664 16.1504 2.1875 15.5 2.1875C14.8496 2.1875 14.2614 2.55664 13.9915 3.1377L9.87433 11.9424L0.96183 16.0098C0.373661 16.2764 0 16.8574 0 17.5C0 18.1426 0.373661 18.7236 0.96183 18.9902L9.87433 23.0576L13.9915 31.8623C14.2614 32.4434 14.8496 32.8125 15.5 32.8125C16.1504 32.8125 16.7386 32.4434 17.0085 31.8623L21.1257 23.0576L30.0382 18.9902C30.6263 18.7236 31 18.1426 31 17.5C31 16.8574 30.6263 16.2764 30.0382 16.0098L21.1257 11.9424L17.0085 3.1377Z" fill="black"/>
<path d="M17.0085 3.1377C16.7386 2.55664 16.1504 2.1875 15.5 2.1875C14.8496 2.1875 14.2614 2.55664 13.9915 3.1377L9.87433 11.9424L0.96183 16.0098C0.373661 16.2764 0 16.8574 0 17.5C0 18.1426 0.373661 18.7236 0.96183 18.9902L9.87433 23.0576L13.9915 31.8623C14.2614 32.4434 14.8496 32.8125 15.5 32.8125C16.1504 32.8125 16.7386 32.4434 17.0085 31.8623L21.1257 23.0576L30.0382 18.9902C30.6263 18.7236 31 18.1426 31 17.5C31 16.8574 30.6263 16.2764 30.0382 16.0098L21.1257 11.9424L17.0085 3.1377Z" fill="url(#paint0_linear_55_847)"/>
</g>
<defs>
<linearGradient id="paint0_linear_55_847" x1="15.4935" y1="26.3689" x2="24.5576" y2="16.9912" gradientUnits="userSpaceOnUse">
<stop stop-color="#FFD521"/>
<stop offset="0.05" stop-color="#FFD521"/>
<stop offset="0.550024" stop-color="#F50000"/>
<stop offset="0.95" stop-color="#B900B4"/>
<stop offset="0.950079" stop-color="#B900B4"/>
<stop offset="1" stop-color="#B900B4"/>
</linearGradient>
</defs>
</svg>
