<svg width="48" height="54" viewBox="0 0 48 54" fill="none" xmlns="http://www.w3.org/2000/svg">
<g opacity="0.55">
<path d="M26.3357 4.84102C25.9179 3.94453 25.0071 3.375 24 3.375C22.9929 3.375 22.0821 3.94453 21.6643 4.84102L15.2893 18.4254L1.48929 24.7008C0.578571 25.1121 0 26.0086 0 27C0 27.9914 0.578571 28.8879 1.48929 29.2992L15.2893 35.5746L21.6643 49.159C22.0821 50.0555 22.9929 50.625 24 50.625C25.0071 50.625 25.9179 50.0555 26.3357 49.159L32.7107 35.5746L46.5107 29.2992C47.4214 28.8879 48 27.9914 48 27C48 26.0086 47.4214 25.1121 46.5107 24.7008L32.7107 18.4254L26.3357 4.84102Z" fill="black"/>
<path d="M26.3357 4.84102C25.9179 3.94453 25.0071 3.375 24 3.375C22.9929 3.375 22.0821 3.94453 21.6643 4.84102L15.2893 18.4254L1.48929 24.7008C0.578571 25.1121 0 26.0086 0 27C0 27.9914 0.578571 28.8879 1.48929 29.2992L15.2893 35.5746L21.6643 49.159C22.0821 50.0555 22.9929 50.625 24 50.625C25.0071 50.625 25.9179 50.0555 26.3357 49.159L32.7107 35.5746L46.5107 29.2992C47.4214 28.8879 48 27.9914 48 27C48 26.0086 47.4214 25.1121 46.5107 24.7008L32.7107 18.4254L26.3357 4.84102Z" fill="url(#paint0_linear_55_851)"/>
</g>
<defs>
<linearGradient id="paint0_linear_55_851" x1="23.99" y1="40.6835" x2="37.9728" y2="26.165" gradientUnits="userSpaceOnUse">
<stop stop-color="#FFD521"/>
<stop offset="0.05" stop-color="#FFD521"/>
<stop offset="0.550024" stop-color="#F50000"/>
<stop offset="0.95" stop-color="#B900B4"/>
<stop offset="0.950079" stop-color="#B900B4"/>
<stop offset="1" stop-color="#B900B4"/>
</linearGradient>
</defs>
</svg>
