<svg width="24" height="24" viewBox="0 0 24 24" fill="none" xmlns="http://www.w3.org/2000/svg">
<path d="M9.65846 9.4518V8.51659C9.33381 8.46515 9.00591 8.43697 8.67725 8.43227C5.49538 8.42552 2.67824 10.4874 1.72286 13.5225C0.767335 16.5575 1.89519 19.8613 4.50704 21.6786C2.5506 19.5847 2.00734 16.5364 3.12001 13.8956C4.23261 11.2548 6.79341 9.51428 9.65846 9.4518Z" fill="#25F4EE"/>
<path d="M9.83475 20.0458C11.6137 20.0434 13.0761 18.6418 13.154 16.8645V1.0042H16.0516C15.9925 0.672804 15.9642 0.336624 15.9673 0L12.0041 0V15.845C11.9382 17.6313 10.4725 19.0463 8.6849 19.0492C8.15071 19.0447 7.62524 18.9133 7.15176 18.6659C7.45861 19.0911 7.8616 19.4377 8.32786 19.6775C8.79412 19.9173 9.31045 20.0435 9.83475 20.0458ZM21.4636 6.38552V5.50396C20.3972 5.50433 19.3545 5.18964 18.4663 4.59941C19.2449 5.50451 20.297 6.13148 21.4636 6.38552Z" fill="#25F4EE"/>
<path d="M18.4663 4.59945C17.5914 3.60317 17.1091 2.32248 17.1095 0.996582H16.0516C16.1883 1.72966 16.4729 2.4272 16.888 3.04665C17.3032 3.66609 17.8402 4.19444 18.4663 4.59945ZM8.67725 12.3955C7.15055 12.4033 5.82516 13.4492 5.46257 14.9322C5.09998 16.4152 5.79327 17.9546 7.14412 18.666C6.78515 18.1704 6.57017 17.5852 6.52294 16.9751C6.47571 16.365 6.59806 15.7537 6.87648 15.2087C7.1549 14.6638 7.57854 14.2064 8.10061 13.8872C8.62267 13.5679 9.22283 13.3992 9.83477 13.3997C10.1675 13.4038 10.4979 13.4555 10.816 13.553V9.52082C10.4911 9.47215 10.1632 9.44654 9.83477 9.44417H9.65846V12.5104C9.3387 12.4247 9.00817 12.386 8.67725 12.3955Z" fill="#FE2C55"/>
<path d="M21.4636 6.3855V9.45177C19.4895 9.44795 17.5666 8.82308 15.9673 7.66567V15.7223C15.9589 19.7425 12.6974 22.997 8.67724 22.997C7.18424 22.9997 5.7272 22.539 4.50711 21.6785C6.54327 23.8685 9.71211 24.5894 12.4953 23.4958C15.2784 22.4021 17.1088 19.7168 17.1095 16.7265V8.69287C18.7141 9.8427 20.6394 10.4594 22.6135 10.456V6.50815C22.227 6.50692 21.8417 6.46582 21.4636 6.3855Z" fill="#FE2C55"/>
<path d="M15.9673 15.7224V7.66573C17.5715 8.81649 19.4971 9.43332 21.4713 9.42883V6.36256C20.3049 6.11627 19.2503 5.49747 18.4663 4.59945C17.8402 4.19444 17.3032 3.66609 16.888 3.04665C16.4729 2.4272 16.1883 1.72966 16.0516 0.996582H13.154V16.8645C13.0961 18.2802 12.1478 19.5038 10.7915 19.9133C9.43501 20.3228 7.96818 19.8284 7.13646 18.6813C5.78561 17.9699 5.09233 16.4305 5.45491 14.9475C5.8175 13.4645 7.1429 12.4186 8.66959 12.4108C9.00239 12.4138 9.33296 12.4654 9.6508 12.5641V9.49783C6.76965 9.54666 4.18954 11.2931 3.07372 13.9498C1.95798 16.6065 2.51719 19.6715 4.49946 21.7629C5.73159 22.595 7.19075 23.0261 8.67726 22.9971C12.6975 22.9971 15.9589 19.7426 15.9673 15.7224Z" fill="#303030"/>
</svg>
