<svg width="24" height="24" viewBox="0 0 24 24" fill="none" xmlns="http://www.w3.org/2000/svg">
<path d="M23.4986 6.18579C23.2225 5.14649 22.4093 4.328 21.3766 4.05023C19.5051 3.54541 12 3.54541 12 3.54541C12 3.54541 4.495 3.54541 2.6234 4.05023C1.59065 4.328 0.777275 5.14649 0.501445 6.18579C0 8.06956 0 12 0 12C0 12 0 15.9303 0.501445 17.8142C0.777275 18.8536 1.59065 19.6719 2.6233 19.95C4.4949 20.4546 11.9999 20.4546 11.9999 20.4546C11.9999 20.4546 19.505 20.4546 21.3765 19.95C22.4092 19.672 23.2224 18.8536 23.4985 17.8143C24 15.9304 24 12.0001 24 12.0001C24 12.0001 24 8.06966 23.4985 6.1859" fill="#FF0000"/>
<path d="M9.54544 15.5685L15.8182 12.0002L9.54544 8.43152V15.5685Z" fill="white"/>
</svg>
